<svg width="1024" height="1024" viewBox="0 0 1024 1024" fill="none" xmlns="http://www.w3.org/2000/svg">
<rect width="1024" height="1024" fill="white"/>
<path d="M702.348 390.348C702.348 495.474 617.126 580.695 512 580.695C406.874 580.695 321.652 495.474 321.652 390.348C321.652 285.222 406.874 200 512 200C617.126 200 702.348 285.222 702.348 390.348Z" fill="#DCD9FF"/>
<path fill-rule="evenodd" clip-rule="evenodd" d="M321.864 399.395L371.592 376.992L388.879 383.072L413.465 376.992L443.045 396.45L497.21 403.139L583.645 361.182L613.608 376.992L638.194 364.83L702.253 396.403C699.056 498.727 615.1 580.696 512 580.696C409.907 580.696 326.586 500.32 321.864 399.395Z" fill="#5046E4"/>
<path d="M174.53 809.26C163.484 809.26 153.95 807.09 145.928 802.75C138.038 798.411 131.923 792.23 127.583 784.208C123.375 776.055 121.271 766.455 121.271 755.409C121.271 744.363 123.112 734.763 126.794 726.61C130.476 718.457 135.736 712.21 142.575 707.871C149.544 703.399 157.895 701.164 167.626 701.164C172.229 701.164 176.305 701.69 179.856 702.742C183.538 703.794 186.957 705.043 190.113 706.49V657.768L215.756 653.625V803.342C212.6 804.394 208.721 805.381 204.118 806.301C199.516 807.09 194.65 807.748 189.521 808.274C184.524 808.931 179.527 809.26 174.53 809.26ZM174.727 787.167C178.146 787.167 181.171 787.036 183.801 786.773C186.431 786.378 188.535 786.049 190.113 785.786V728.385C188.141 726.939 185.445 725.689 182.026 724.637C178.738 723.585 175.188 723.059 171.374 723.059C167.297 723.059 163.747 723.782 160.722 725.229C157.829 726.544 155.396 728.582 153.424 731.344C151.451 733.974 150.005 737.262 149.084 741.207C148.164 745.02 147.703 749.426 147.703 754.423C147.703 761.13 148.755 766.916 150.859 771.781C152.963 776.647 156.054 780.461 160.13 783.222C164.207 785.852 169.073 787.167 174.727 787.167ZM283.343 809.26C270.981 809.26 260.856 806.959 252.965 802.356C245.075 797.622 239.157 791.178 235.212 783.025C231.399 774.872 229.492 765.732 229.492 755.606C229.492 743.377 231.859 733.251 236.593 725.229C241.327 717.076 247.376 710.961 254.741 706.884C262.105 702.676 269.929 700.572 278.214 700.572C287.682 700.572 295.835 702.545 302.674 706.49C309.643 710.435 314.969 716.287 318.651 724.045C322.465 731.804 324.372 741.535 324.372 753.239C324.372 754.686 324.306 756.33 324.175 758.171C324.043 760.012 323.912 761.656 323.78 763.102H256.121C256.647 770.598 259.475 776.45 264.603 780.658C269.864 784.866 277.162 786.97 286.499 786.97C292.285 786.97 297.611 786.444 302.476 785.392C307.474 784.34 311.419 783.156 314.312 781.841L318.06 802.948C315.167 804.394 310.432 805.775 303.857 807.09C297.414 808.537 290.575 809.26 283.343 809.26ZM256.121 744.955H299.32C299.189 740.878 298.334 737.13 296.756 733.711C295.309 730.16 293.074 727.333 290.049 725.229C287.156 723.125 283.277 722.073 278.411 722.073C273.677 722.073 269.732 723.191 266.576 725.426C263.551 727.53 261.184 730.358 259.475 733.908C257.765 737.327 256.647 741.009 256.121 744.955ZM338.608 806.696V706.884C343.474 705.569 349.589 704.254 356.953 702.939C364.449 701.624 372.207 700.967 380.229 700.967C387.462 700.967 393.379 701.953 397.982 703.925C402.716 705.766 406.596 708.134 409.62 711.027C412.119 709.186 415.012 707.542 418.299 706.095C421.587 704.649 425.138 703.465 428.951 702.545C432.765 701.493 436.513 700.967 440.195 700.967C451.11 700.967 459.46 703.005 465.246 707.082C471.164 711.027 475.175 716.55 477.279 723.651C479.514 730.752 480.632 739.037 480.632 748.505V806.696H454.989V752.056C454.989 745.218 454.397 739.694 453.214 735.486C452.162 731.147 450.32 727.991 447.69 726.018C445.06 724.045 441.444 723.059 436.841 723.059C434.869 723.059 432.765 723.322 430.529 723.848C428.425 724.374 426.453 725.098 424.612 726.018C422.77 726.807 421.192 727.596 419.877 728.385C420.929 731.541 421.587 734.895 421.85 738.445C422.244 741.996 422.442 745.744 422.442 749.689V806.696H396.798V752.056C396.798 745.218 396.207 739.694 395.023 735.486C393.971 731.147 392.13 727.991 389.5 726.018C386.87 724.045 383.188 723.059 378.454 723.059C376.613 723.059 374.772 723.125 372.931 723.256C371.221 723.388 369.643 723.585 368.196 723.848C366.75 723.98 365.435 724.177 364.251 724.44V806.696H338.608ZM543.617 809.26C533.754 809.26 525.009 807.024 517.382 802.553C509.886 797.951 504.034 791.573 499.826 783.419C495.618 775.266 493.514 765.732 493.514 754.817C493.514 743.903 495.684 734.434 500.023 726.413C504.363 718.391 510.28 712.079 517.776 707.476C525.403 702.873 534.017 700.572 543.617 700.572C553.348 700.572 561.961 702.873 569.457 707.476C577.084 711.947 583.002 718.259 587.21 726.413C591.418 734.434 593.522 743.903 593.522 754.817C593.522 765.732 591.418 775.266 587.21 783.419C583.134 791.573 577.347 797.951 569.852 802.553C562.487 807.024 553.742 809.26 543.617 809.26ZM543.617 787.167C548.614 787.167 552.822 785.852 556.241 783.222C559.792 780.592 562.487 776.844 564.329 771.979C566.301 767.113 567.287 761.393 567.287 754.817C567.287 748.242 566.301 742.588 564.329 737.853C562.487 733.119 559.792 729.437 556.241 726.807C552.822 724.177 548.614 722.862 543.617 722.862C538.62 722.862 534.346 724.177 530.795 726.807C527.244 729.437 524.549 733.119 522.708 737.853C520.867 742.588 519.946 748.242 519.946 754.817C519.946 761.393 520.867 767.113 522.708 771.979C524.549 776.713 527.244 780.461 530.795 783.222C534.346 785.852 538.62 787.167 543.617 787.167ZM655.572 809.26C644.525 809.26 634.991 807.09 626.969 802.75C619.079 798.411 612.964 792.23 608.625 784.208C604.417 776.055 602.313 766.455 602.313 755.409C602.313 744.363 604.154 734.763 607.836 726.61C611.518 718.457 616.778 712.21 623.616 707.871C630.586 703.399 638.936 701.164 648.668 701.164C653.27 701.164 657.347 701.69 660.897 702.742C664.58 703.794 667.999 705.043 671.155 706.49V657.768L696.798 653.625V803.342C693.642 804.394 689.763 805.381 685.16 806.301C680.557 807.09 675.692 807.748 670.563 808.274C665.566 808.931 660.569 809.26 655.572 809.26ZM655.769 787.167C659.188 787.167 662.212 787.036 664.843 786.773C667.473 786.378 669.577 786.049 671.155 785.786V728.385C669.182 726.939 666.486 725.689 663.067 724.637C659.78 723.585 656.229 723.059 652.415 723.059C648.339 723.059 644.788 723.782 641.764 725.229C638.871 726.544 636.438 728.582 634.465 731.344C632.493 733.974 631.046 737.262 630.126 741.207C629.205 745.02 628.745 749.426 628.745 754.423C628.745 761.13 629.797 766.916 631.901 771.781C634.005 776.647 637.095 780.461 641.172 783.222C645.249 785.852 650.114 787.167 655.769 787.167ZM764.384 809.26C752.023 809.26 741.897 806.959 734.007 802.356C726.117 797.622 720.199 791.178 716.254 783.025C712.44 774.872 710.533 765.732 710.533 755.606C710.533 743.377 712.9 733.251 717.635 725.229C722.369 717.076 728.418 710.961 735.782 706.884C743.146 702.676 750.971 700.572 759.256 700.572C768.724 700.572 776.877 702.545 783.715 706.49C790.685 710.435 796.011 716.287 799.693 724.045C803.507 731.804 805.413 741.535 805.413 753.239C805.413 754.686 805.348 756.33 805.216 758.171C805.085 760.012 804.953 761.656 804.822 763.102H737.163C737.689 770.598 740.516 776.45 745.645 780.658C750.905 784.866 758.203 786.97 767.54 786.97C773.326 786.97 778.652 786.444 783.518 785.392C788.515 784.34 792.46 783.156 795.353 781.841L799.101 802.948C796.208 804.394 791.474 805.775 784.899 807.09C778.455 808.537 771.617 809.26 764.384 809.26ZM737.163 744.955H780.362C780.23 740.878 779.376 737.13 777.798 733.711C776.351 730.16 774.115 727.333 771.091 725.229C768.198 723.125 764.318 722.073 759.453 722.073C754.719 722.073 750.774 723.191 747.617 725.426C744.593 727.53 742.226 730.358 740.516 733.908C738.807 737.327 737.689 741.009 737.163 744.955ZM846.871 806.696C843.583 799.989 840.164 792.756 836.614 784.997C833.195 777.239 829.841 769.02 826.554 760.341C823.266 751.53 819.978 742.39 816.691 732.922C813.535 723.322 810.444 713.459 807.42 703.334H834.838C836.679 710.698 838.849 718.785 841.348 727.596C843.978 736.407 846.739 745.086 849.632 753.634C852.657 762.05 855.484 769.546 858.114 776.121C860.087 771.255 862.125 765.798 864.229 759.749C866.465 753.568 868.635 747.256 870.739 740.812C872.843 734.237 874.815 727.728 876.656 721.284C878.629 714.84 880.273 708.857 881.588 703.334H908.02C905.127 713.459 902.037 723.322 898.749 732.922C895.593 742.39 892.305 751.53 888.886 760.341C885.599 769.02 882.245 777.239 878.826 784.997C875.539 792.756 872.185 799.989 868.766 806.696H846.871Z" fill="#5046E4"/>
<path d="M702.348 390.348C702.348 495.474 617.126 580.695 512 580.695C406.874 580.695 321.652 495.474 321.652 390.348C321.652 285.222 406.874 200 512 200C617.126 200 702.348 285.222 702.348 390.348Z" fill="#DCD9FF"/>
<path d="M613.609 376.991L638.195 364.83L702.252 396.402C699.055 498.726 615.1 580.695 512 580.695C409.907 580.695 326.586 500.32 321.864 399.395L371.592 376.991L388.879 383.072L413.465 376.991L443.044 396.45L497.21 403.139L583.645 361.182L613.609 376.991Z" fill="#5046E4"/>
<path d="M174.53 809.26C163.484 809.26 153.95 807.09 145.928 802.75C138.038 798.411 131.923 792.23 127.583 784.208C123.375 776.055 121.271 766.455 121.271 755.409C121.271 744.363 123.112 734.763 126.794 726.61C130.476 718.457 135.736 712.21 142.575 707.871C149.544 703.399 157.895 701.164 167.626 701.164C172.229 701.164 176.305 701.69 179.856 702.742C183.538 703.794 186.957 705.043 190.113 706.49V657.768L215.756 653.625V803.342C212.6 804.394 208.721 805.381 204.118 806.301C199.516 807.09 194.65 807.748 189.521 808.274C184.524 808.931 179.527 809.26 174.53 809.26ZM174.727 787.167C178.146 787.167 181.171 787.036 183.801 786.773C186.431 786.378 188.535 786.049 190.113 785.786V728.385C188.141 726.939 185.445 725.689 182.026 724.637C178.738 723.585 175.188 723.059 171.374 723.059C167.297 723.059 163.747 723.782 160.722 725.229C157.829 726.544 155.396 728.582 153.424 731.344C151.451 733.974 150.005 737.262 149.084 741.207C148.164 745.02 147.703 749.426 147.703 754.423C147.703 761.13 148.755 766.916 150.859 771.781C152.963 776.647 156.054 780.461 160.13 783.222C164.207 785.852 169.073 787.167 174.727 787.167ZM283.343 809.26C270.981 809.26 260.856 806.959 252.965 802.356C245.075 797.622 239.157 791.178 235.212 783.025C231.399 774.872 229.492 765.732 229.492 755.606C229.492 743.377 231.859 733.251 236.593 725.229C241.327 717.076 247.376 710.961 254.741 706.884C262.105 702.676 269.929 700.572 278.214 700.572C287.682 700.572 295.835 702.545 302.674 706.49C309.643 710.435 314.969 716.287 318.651 724.045C322.465 731.804 324.372 741.535 324.372 753.239C324.372 754.686 324.306 756.33 324.175 758.171C324.043 760.012 323.912 761.656 323.78 763.102H256.121C256.647 770.598 259.475 776.45 264.603 780.658C269.864 784.866 277.162 786.97 286.499 786.97C292.285 786.97 297.611 786.444 302.476 785.392C307.474 784.34 311.419 783.156 314.312 781.841L318.06 802.948C315.167 804.394 310.432 805.775 303.857 807.09C297.414 808.537 290.575 809.26 283.343 809.26ZM256.121 744.955H299.32C299.189 740.878 298.334 737.13 296.756 733.711C295.309 730.16 293.074 727.333 290.049 725.229C287.156 723.125 283.277 722.073 278.411 722.073C273.677 722.073 269.732 723.191 266.576 725.426C263.551 727.53 261.184 730.358 259.475 733.908C257.765 737.327 256.647 741.009 256.121 744.955ZM338.608 806.696V706.884C343.474 705.569 349.589 704.254 356.953 702.939C364.449 701.624 372.207 700.967 380.229 700.967C387.462 700.967 393.379 701.953 397.982 703.925C402.716 705.766 406.596 708.134 409.62 711.027C412.119 709.186 415.012 707.542 418.299 706.095C421.587 704.649 425.138 703.465 428.951 702.545C432.765 701.493 436.513 700.967 440.195 700.967C451.11 700.967 459.46 703.005 465.246 707.082C471.164 711.027 475.175 716.55 477.279 723.651C479.514 730.752 480.632 739.037 480.632 748.505V806.696H454.989V752.056C454.989 745.218 454.397 739.694 453.214 735.486C452.162 731.147 450.32 727.991 447.69 726.018C445.06 724.045 441.444 723.059 436.841 723.059C434.869 723.059 432.765 723.322 430.529 723.848C428.425 724.374 426.453 725.098 424.612 726.018C422.77 726.807 421.192 727.596 419.877 728.385C420.929 731.541 421.587 734.895 421.85 738.445C422.244 741.996 422.442 745.744 422.442 749.689V806.696H396.798V752.056C396.798 745.218 396.207 739.694 395.023 735.486C393.971 731.147 392.13 727.991 389.5 726.018C386.87 724.045 383.188 723.059 378.454 723.059C376.613 723.059 374.772 723.125 372.931 723.256C371.221 723.388 369.643 723.585 368.196 723.848C366.75 723.98 365.435 724.177 364.251 724.44V806.696H338.608ZM543.617 809.26C533.754 809.26 525.009 807.024 517.382 802.553C509.886 797.951 504.034 791.573 499.826 783.419C495.618 775.266 493.514 765.732 493.514 754.817C493.514 743.903 495.684 734.434 500.023 726.413C504.363 718.391 510.28 712.079 517.776 707.476C525.403 702.873 534.017 700.572 543.617 700.572C553.348 700.572 561.961 702.873 569.457 707.476C577.084 711.947 583.002 718.259 587.21 726.413C591.418 734.434 593.522 743.903 593.522 754.817C593.522 765.732 591.418 775.266 587.21 783.419C583.134 791.573 577.347 797.951 569.852 802.553C562.487 807.024 553.742 809.26 543.617 809.26ZM543.617 787.167C548.614 787.167 552.822 785.852 556.241 783.222C559.792 780.592 562.487 776.844 564.329 771.979C566.301 767.113 567.287 761.393 567.287 754.817C567.287 748.242 566.301 742.588 564.329 737.853C562.487 733.119 559.792 729.437 556.241 726.807C552.822 724.177 548.614 722.862 543.617 722.862C538.62 722.862 534.346 724.177 530.795 726.807C527.244 729.437 524.549 733.119 522.708 737.853C520.867 742.588 519.946 748.242 519.946 754.817C519.946 761.393 520.867 767.113 522.708 771.979C524.549 776.713 527.244 780.461 530.795 783.222C534.346 785.852 538.62 787.167 543.617 787.167ZM655.572 809.26C644.525 809.26 634.991 807.09 626.969 802.75C619.079 798.411 612.964 792.23 608.625 784.208C604.417 776.055 602.313 766.455 602.313 755.409C602.313 744.363 604.154 734.763 607.836 726.61C611.518 718.457 616.778 712.21 623.616 707.871C630.586 703.399 638.936 701.164 648.668 701.164C653.27 701.164 657.347 701.69 660.897 702.742C664.58 703.794 667.999 705.043 671.155 706.49V657.768L696.798 653.625V803.342C693.642 804.394 689.763 805.381 685.16 806.301C680.557 807.09 675.692 807.748 670.563 808.274C665.566 808.931 660.569 809.26 655.572 809.26ZM655.769 787.167C659.188 787.167 662.212 787.036 664.843 786.773C667.473 786.378 669.577 786.049 671.155 785.786V728.385C669.182 726.939 666.486 725.689 663.067 724.637C659.78 723.585 656.229 723.059 652.415 723.059C648.339 723.059 644.788 723.782 641.764 725.229C638.871 726.544 636.438 728.582 634.465 731.344C632.493 733.974 631.046 737.262 630.126 741.207C629.205 745.02 628.745 749.426 628.745 754.423C628.745 761.13 629.797 766.916 631.901 771.781C634.005 776.647 637.095 780.461 641.172 783.222C645.249 785.852 650.114 787.167 655.769 787.167ZM764.384 809.26C752.023 809.26 741.897 806.959 734.007 802.356C726.117 797.622 720.199 791.178 716.254 783.025C712.44 774.872 710.533 765.732 710.533 755.606C710.533 743.377 712.9 733.251 717.635 725.229C722.369 717.076 728.418 710.961 735.782 706.884C743.146 702.676 750.971 700.572 759.256 700.572C768.724 700.572 776.877 702.545 783.715 706.49C790.685 710.435 796.011 716.287 799.693 724.045C803.507 731.804 805.413 741.535 805.413 753.239C805.413 754.686 805.348 756.33 805.216 758.171C805.085 760.012 804.953 761.656 804.822 763.102H737.163C737.689 770.598 740.516 776.45 745.645 780.658C750.905 784.866 758.203 786.97 767.54 786.97C773.326 786.97 778.652 786.444 783.518 785.392C788.515 784.34 792.46 783.156 795.353 781.841L799.101 802.948C796.208 804.394 791.474 805.775 784.899 807.09C778.455 808.537 771.617 809.26 764.384 809.26ZM737.163 744.955H780.362C780.23 740.878 779.376 737.13 777.798 733.711C776.351 730.16 774.115 727.333 771.091 725.229C768.198 723.125 764.318 722.073 759.453 722.073C754.719 722.073 750.774 723.191 747.617 725.426C744.593 727.53 742.226 730.358 740.516 733.908C738.807 737.327 737.689 741.009 737.163 744.955ZM846.871 806.696C843.583 799.989 840.164 792.756 836.614 784.997C833.195 777.239 829.841 769.02 826.554 760.341C823.266 751.53 819.978 742.39 816.691 732.922C813.535 723.322 810.444 713.459 807.42 703.334H834.838C836.679 710.698 838.849 718.785 841.348 727.596C843.978 736.407 846.739 745.086 849.632 753.634C852.657 762.05 855.484 769.546 858.114 776.121C860.087 771.255 862.125 765.798 864.229 759.749C866.465 753.568 868.635 747.256 870.739 740.812C872.843 734.237 874.815 727.728 876.656 721.284C878.629 714.84 880.273 708.857 881.588 703.334H908.02C905.127 713.459 902.037 723.322 898.749 732.922C895.593 742.39 892.305 751.53 888.886 760.341C885.599 769.02 882.245 777.239 878.826 784.997C875.539 792.756 872.185 799.989 868.766 806.696H846.871Z" fill="#5046E4"/>
</svg>
